<svg xmlns="http://www.w3.org/2000/svg" xmlns:xlink="http://www.w3.org/1999/xlink" width="500" zoomAndPan="magnify" viewBox="0 0 375 374.999991" height="500" preserveAspectRatio="xMidYMid meet" version="1.0"><defs><g/></defs><g fill="#000000" fill-opacity="1"><g transform="translate(19.681785, 191.067263)"><g><path d="M 6.640625 -4.4375 C 3.285156 -8.101562 1.609375 -12.597656 1.609375 -17.921875 C 1.609375 -23.242188 3.285156 -27.742188 6.640625 -31.421875 C 10.003906 -35.109375 14.273438 -36.953125 19.453125 -36.953125 C 24.210938 -36.953125 28.132812 -35.460938 31.21875 -32.484375 L 31.21875 -60.203125 L 43.609375 -60.203125 L 43.609375 0 L 31.359375 0 L 31.359375 -4.0625 L 31.21875 -4.0625 C 28.132812 -0.65625 24.210938 1.046875 19.453125 1.046875 C 14.273438 1.046875 10.003906 -0.78125 6.640625 -4.4375 Z M 17.171875 -24 C 15.566406 -22.414062 14.765625 -20.382812 14.765625 -17.90625 C 14.765625 -15.4375 15.535156 -13.421875 17.078125 -11.859375 C 18.617188 -10.296875 20.648438 -9.515625 23.171875 -9.515625 C 25.597656 -9.515625 27.59375 -10.304688 29.15625 -11.890625 C 30.71875 -13.484375 31.5 -15.492188 31.5 -17.921875 C 31.5 -20.390625 30.691406 -22.414062 29.078125 -24 C 27.472656 -25.59375 25.503906 -26.390625 23.171875 -26.390625 C 20.785156 -26.390625 18.785156 -25.59375 17.171875 -24 Z M 17.171875 -24 "/></g></g></g><g fill="#000000" fill-opacity="1"><g transform="translate(60.909169, 191.067263)"><g><path d="M 4.203125 0 L 4.203125 -35.90625 L 16.59375 -35.90625 L 16.59375 -30.734375 L 16.734375 -30.734375 C 16.828125 -30.921875 16.976562 -31.148438 17.1875 -31.421875 C 17.394531 -31.703125 17.847656 -32.191406 18.546875 -32.890625 C 19.242188 -33.597656 19.988281 -34.226562 20.78125 -34.78125 C 21.582031 -35.34375 22.613281 -35.84375 23.875 -36.28125 C 25.132812 -36.726562 26.414062 -36.953125 27.71875 -36.953125 C 29.070312 -36.953125 30.398438 -36.765625 31.703125 -36.390625 C 33.015625 -36.023438 33.972656 -35.65625 34.578125 -35.28125 L 35.5625 -34.71875 L 30.375 -24.21875 C 28.832031 -25.53125 26.6875 -26.1875 23.9375 -26.1875 C 22.445312 -26.1875 21.164062 -25.859375 20.09375 -25.203125 C 19.019531 -24.546875 18.257812 -23.75 17.8125 -22.8125 C 17.375 -21.882812 17.0625 -21.09375 16.875 -20.4375 C 16.6875 -19.78125 16.59375 -19.269531 16.59375 -18.90625 L 16.59375 0 Z M 4.203125 0 "/></g></g></g><g fill="#000000" fill-opacity="1"><g transform="translate(89.187266, 191.067263)"><g><path d="M 6.640625 -4.4375 C 3.285156 -8.101562 1.609375 -12.597656 1.609375 -17.921875 C 1.609375 -23.242188 3.285156 -27.742188 6.640625 -31.421875 C 10.003906 -35.109375 14.273438 -36.953125 19.453125 -36.953125 C 24.210938 -36.953125 28.132812 -35.460938 31.21875 -32.484375 L 31.21875 -35.90625 L 43.609375 -35.90625 L 43.609375 0 L 31.359375 0 L 31.359375 -4.0625 L 31.21875 -4.0625 C 28.132812 -0.65625 24.210938 1.046875 19.453125 1.046875 C 14.273438 1.046875 10.003906 -0.78125 6.640625 -4.4375 Z M 17.171875 -24 C 15.566406 -22.414062 14.765625 -20.382812 14.765625 -17.90625 C 14.765625 -15.4375 15.535156 -13.421875 17.078125 -11.859375 C 18.617188 -10.296875 20.648438 -9.515625 23.171875 -9.515625 C 25.597656 -9.515625 27.59375 -10.304688 29.15625 -11.890625 C 30.71875 -13.484375 31.5 -15.492188 31.5 -17.921875 C 31.5 -20.390625 30.691406 -22.414062 29.078125 -24 C 27.472656 -25.59375 25.503906 -26.390625 23.171875 -26.390625 C 20.785156 -26.390625 18.785156 -25.59375 17.171875 -24 Z M 17.171875 -24 "/></g></g></g><g fill="#000000" fill-opacity="1"><g transform="translate(130.41465, 191.067263)"><g><path d="M 2.59375 8.8125 L 12.734375 3.84375 C 14.609375 6.925781 17.851562 8.46875 22.46875 8.46875 C 24.613281 8.46875 26.609375 7.78125 28.453125 6.40625 C 30.296875 5.03125 31.21875 2.914062 31.21875 0.0625 L 31.21875 -2.59375 C 29.03125 -0.164062 25.109375 1.046875 19.453125 1.046875 C 14.273438 1.046875 10.003906 -0.78125 6.640625 -4.4375 C 3.285156 -8.101562 1.609375 -12.597656 1.609375 -17.921875 C 1.609375 -23.242188 3.285156 -27.742188 6.640625 -31.421875 C 10.003906 -35.109375 14.273438 -36.953125 19.453125 -36.953125 C 24.078125 -36.953125 27.929688 -35.53125 31.015625 -32.6875 L 31.21875 -32.6875 L 31.21875 -35.90625 L 43.609375 -35.90625 L 43.609375 0.984375 C 43.609375 6.816406 41.671875 11.316406 37.796875 14.484375 C 33.921875 17.660156 28.8125 19.25 22.46875 19.25 C 12.195312 19.25 5.570312 15.769531 2.59375 8.8125 Z M 17.171875 -24 C 15.566406 -22.414062 14.765625 -20.382812 14.765625 -17.90625 C 14.765625 -15.4375 15.535156 -13.421875 17.078125 -11.859375 C 18.617188 -10.296875 20.648438 -9.515625 23.171875 -9.515625 C 25.597656 -9.515625 27.59375 -10.304688 29.15625 -11.890625 C 30.71875 -13.484375 31.5 -15.492188 31.5 -17.921875 C 31.5 -20.390625 30.691406 -22.414062 29.078125 -24 C 27.472656 -25.59375 25.503906 -26.390625 23.171875 -26.390625 C 20.785156 -26.390625 18.785156 -25.59375 17.171875 -24 Z M 17.171875 -24 "/></g></g></g><g fill="#000000" fill-opacity="1"><g transform="translate(171.642034, 191.067263)"><g><path d="M 5.390625 -55.921875 C 6.835938 -57.367188 8.5625 -58.09375 10.5625 -58.09375 C 12.570312 -58.09375 14.300781 -57.367188 15.75 -55.921875 C 17.195312 -54.484375 17.921875 -52.757812 17.921875 -50.75 C 17.921875 -48.738281 17.195312 -47.007812 15.75 -45.5625 C 14.300781 -44.125 12.570312 -43.40625 10.5625 -43.40625 C 8.5625 -43.40625 6.835938 -44.125 5.390625 -45.5625 C 3.941406 -47.007812 3.21875 -48.738281 3.21875 -50.75 C 3.21875 -52.757812 3.941406 -54.484375 5.390625 -55.921875 Z M 4.203125 -35.90625 L 4.203125 0 L 16.59375 0 L 16.59375 -35.90625 Z M 4.203125 -35.90625 "/></g></g></g><g fill="#000000" fill-opacity="1"><g transform="translate(186.200886, 191.067263)"><g/></g></g><g fill="#000000" fill-opacity="1"><g transform="translate(198.729843, 191.067263)"><g><path d="M 2.59375 8.8125 L 12.734375 3.84375 C 14.609375 6.925781 17.851562 8.46875 22.46875 8.46875 C 24.613281 8.46875 26.609375 7.78125 28.453125 6.40625 C 30.296875 5.03125 31.21875 2.914062 31.21875 0.0625 L 31.21875 -2.59375 C 29.03125 -0.164062 25.109375 1.046875 19.453125 1.046875 C 14.273438 1.046875 10.003906 -0.78125 6.640625 -4.4375 C 3.285156 -8.101562 1.609375 -12.597656 1.609375 -17.921875 C 1.609375 -23.242188 3.285156 -27.742188 6.640625 -31.421875 C 10.003906 -35.109375 14.273438 -36.953125 19.453125 -36.953125 C 24.078125 -36.953125 27.929688 -35.53125 31.015625 -32.6875 L 31.21875 -32.6875 L 31.21875 -35.90625 L 43.609375 -35.90625 L 43.609375 0.984375 C 43.609375 6.816406 41.671875 11.316406 37.796875 14.484375 C 33.921875 17.660156 28.8125 19.25 22.46875 19.25 C 12.195312 19.25 5.570312 15.769531 2.59375 8.8125 Z M 17.171875 -24 C 15.566406 -22.414062 14.765625 -20.382812 14.765625 -17.90625 C 14.765625 -15.4375 15.535156 -13.421875 17.078125 -11.859375 C 18.617188 -10.296875 20.648438 -9.515625 23.171875 -9.515625 C 25.597656 -9.515625 27.59375 -10.304688 29.15625 -11.890625 C 30.71875 -13.484375 31.5 -15.492188 31.5 -17.921875 C 31.5 -20.390625 30.691406 -22.414062 29.078125 -24 C 27.472656 -25.59375 25.503906 -26.390625 23.171875 -26.390625 C 20.785156 -26.390625 18.785156 -25.59375 17.171875 -24 Z M 17.171875 -24 "/></g></g></g><g fill="#000000" fill-opacity="1"><g transform="translate(239.957238, 191.067263)"><g><path d="M 7.59375 -4.265625 C 3.601562 -7.816406 1.609375 -12.367188 1.609375 -17.921875 C 1.609375 -23.472656 3.679688 -28.03125 7.828125 -31.59375 C 11.984375 -35.164062 17.117188 -36.953125 23.234375 -36.953125 C 29.253906 -36.953125 34.328125 -35.15625 38.453125 -31.5625 C 42.585938 -27.976562 44.65625 -23.429688 44.65625 -17.921875 C 44.65625 -12.410156 42.632812 -7.867188 38.59375 -4.296875 C 34.5625 -0.734375 29.441406 1.046875 23.234375 1.046875 C 16.796875 1.046875 11.582031 -0.722656 7.59375 -4.265625 Z M 17.171875 -24 C 15.566406 -22.414062 14.765625 -20.382812 14.765625 -17.90625 C 14.765625 -15.4375 15.535156 -13.421875 17.078125 -11.859375 C 18.617188 -10.296875 20.648438 -9.515625 23.171875 -9.515625 C 25.597656 -9.515625 27.59375 -10.304688 29.15625 -11.890625 C 30.71875 -13.484375 31.5 -15.492188 31.5 -17.921875 C 31.5 -20.390625 30.691406 -22.414062 29.078125 -24 C 27.472656 -25.59375 25.503906 -26.390625 23.171875 -26.390625 C 20.785156 -26.390625 18.785156 -25.59375 17.171875 -24 Z M 17.171875 -24 "/></g></g></g><g fill="#000000" fill-opacity="1"><g transform="translate(279.644705, 191.067263)"><g><path d="M 19.8125 -36.953125 C 21.863281 -36.953125 23.890625 -36.71875 25.890625 -36.25 C 27.898438 -35.789062 29.394531 -35.328125 30.375 -34.859375 L 31.84375 -34.15625 L 27.796875 -26.046875 C 24.992188 -27.535156 22.332031 -28.28125 19.8125 -28.28125 C 18.40625 -28.28125 17.410156 -28.128906 16.828125 -27.828125 C 16.242188 -27.523438 15.953125 -26.953125 15.953125 -26.109375 C 15.953125 -25.921875 15.972656 -25.734375 16.015625 -25.546875 C 16.066406 -25.359375 16.160156 -25.179688 16.296875 -25.015625 C 16.441406 -24.859375 16.570312 -24.722656 16.6875 -24.609375 C 16.8125 -24.492188 17.007812 -24.363281 17.28125 -24.21875 C 17.5625 -24.082031 17.785156 -23.976562 17.953125 -23.90625 C 18.117188 -23.832031 18.382812 -23.722656 18.75 -23.578125 C 19.125 -23.441406 19.40625 -23.335938 19.59375 -23.265625 C 19.78125 -23.203125 20.09375 -23.097656 20.53125 -22.953125 C 20.976562 -22.816406 21.320312 -22.726562 21.5625 -22.6875 C 23.007812 -22.257812 24.269531 -21.789062 25.34375 -21.28125 C 26.414062 -20.769531 27.546875 -20.066406 28.734375 -19.171875 C 29.921875 -18.285156 30.84375 -17.164062 31.5 -15.8125 C 32.15625 -14.46875 32.484375 -12.929688 32.484375 -11.203125 C 32.484375 -3.035156 26.8125 1.046875 15.46875 1.046875 C 12.90625 1.046875 10.46875 0.648438 8.15625 -0.140625 C 5.84375 -0.929688 4.175781 -1.722656 3.15625 -2.515625 L 1.609375 -3.78125 L 6.65625 -12.25 C 7.019531 -11.925781 7.503906 -11.539062 8.109375 -11.09375 C 8.722656 -10.65625 9.820312 -10.050781 11.40625 -9.28125 C 13 -8.507812 14.378906 -8.125 15.546875 -8.125 C 18.109375 -8.125 19.390625 -8.984375 19.390625 -10.703125 C 19.390625 -11.503906 19.0625 -12.125 18.40625 -12.5625 C 17.757812 -13.007812 16.648438 -13.507812 15.078125 -14.0625 C 13.515625 -14.625 12.289062 -15.140625 11.40625 -15.609375 C 9.164062 -16.773438 7.390625 -18.09375 6.078125 -19.5625 C 4.773438 -21.03125 4.125 -22.976562 4.125 -25.40625 C 4.125 -29.050781 5.535156 -31.882812 8.359375 -33.90625 C 11.179688 -35.9375 15 -36.953125 19.8125 -36.953125 Z M 19.8125 -36.953125 "/></g></g></g><g fill="#000000" fill-opacity="1"><g transform="translate(110.030409, 228.317255)"><g><path d="M 8.5 -3.9375 C 8.5 -3.15625 8.320312 -2.453125 7.96875 -1.828125 C 7.625 -1.210938 7.148438 -0.726562 6.546875 -0.375 C 5.941406 -0.0195312 5.273438 0.15625 4.546875 0.15625 C 3.816406 0.15625 3.148438 -0.0195312 2.546875 -0.375 C 1.941406 -0.726562 1.460938 -1.210938 1.109375 -1.828125 C 0.753906 -2.453125 0.578125 -3.15625 0.578125 -3.9375 C 0.578125 -4.707031 0.753906 -5.40625 1.109375 -6.03125 C 1.460938 -6.664062 1.941406 -7.160156 2.546875 -7.515625 C 3.148438 -7.867188 3.816406 -8.046875 4.546875 -8.046875 C 5.273438 -8.046875 5.941406 -7.867188 6.546875 -7.515625 C 7.148438 -7.160156 7.625 -6.664062 7.96875 -6.03125 C 8.320312 -5.40625 8.5 -4.707031 8.5 -3.9375 Z M 7.078125 -3.9375 C 7.078125 -4.46875 6.960938 -4.945312 6.734375 -5.375 C 6.515625 -5.800781 6.210938 -6.128906 5.828125 -6.359375 C 5.441406 -6.597656 5.015625 -6.71875 4.546875 -6.71875 C 4.078125 -6.71875 3.648438 -6.597656 3.265625 -6.359375 C 2.878906 -6.128906 2.570312 -5.800781 2.34375 -5.375 C 2.125 -4.945312 2.015625 -4.46875 2.015625 -3.9375 C 2.015625 -3.40625 2.125 -2.925781 2.34375 -2.5 C 2.570312 -2.082031 2.878906 -1.753906 3.265625 -1.515625 C 3.648438 -1.285156 4.078125 -1.171875 4.546875 -1.171875 C 5.015625 -1.171875 5.441406 -1.285156 5.828125 -1.515625 C 6.210938 -1.753906 6.515625 -2.082031 6.734375 -2.5 C 6.960938 -2.925781 7.078125 -3.40625 7.078125 -3.9375 Z M 7.078125 -3.9375 "/></g></g></g><g fill="#000000" fill-opacity="1"><g transform="translate(125.195404, 228.317255)"><g><path d="M 5.0625 -8.046875 C 6.863281 -8.046875 7.765625 -6.960938 7.765625 -4.796875 L 7.765625 -0.71875 C 7.765625 -0.519531 7.695312 -0.347656 7.5625 -0.203125 C 7.425781 -0.0664062 7.253906 0 7.046875 0 C 6.847656 0 6.679688 -0.0664062 6.546875 -0.203125 C 6.410156 -0.347656 6.34375 -0.519531 6.34375 -0.71875 L 6.34375 -4.78125 C 6.34375 -5.375 6.207031 -5.84375 5.9375 -6.1875 C 5.664062 -6.539062 5.226562 -6.71875 4.625 -6.71875 C 4.21875 -6.71875 3.851562 -6.628906 3.53125 -6.453125 C 3.207031 -6.273438 2.953125 -6.039062 2.765625 -5.75 C 2.578125 -5.457031 2.484375 -5.132812 2.484375 -4.78125 L 2.484375 -0.71875 C 2.484375 -0.519531 2.414062 -0.347656 2.28125 -0.203125 C 2.144531 -0.0664062 1.972656 0 1.765625 0 C 1.554688 0 1.382812 -0.0664062 1.25 -0.203125 C 1.125 -0.335938 1.0625 -0.507812 1.0625 -0.71875 L 1.0625 -7.140625 C 1.0625 -7.335938 1.128906 -7.503906 1.265625 -7.640625 C 1.398438 -7.785156 1.566406 -7.859375 1.765625 -7.859375 C 1.972656 -7.859375 2.144531 -7.785156 2.28125 -7.640625 C 2.414062 -7.503906 2.484375 -7.335938 2.484375 -7.140625 L 2.484375 -6.609375 C 2.742188 -7.015625 3.109375 -7.351562 3.578125 -7.625 C 4.046875 -7.90625 4.539062 -8.046875 5.0625 -8.046875 Z M 5.0625 -8.046875 "/></g></g></g><g fill="#000000" fill-opacity="1"><g transform="translate(140.105391, 228.317255)"><g><path d="M 2.609375 -0.71875 C 2.609375 -0.519531 2.535156 -0.347656 2.390625 -0.203125 C 2.253906 -0.0664062 2.085938 0 1.890625 0 C 1.691406 0 1.523438 -0.0664062 1.390625 -0.203125 C 1.253906 -0.347656 1.1875 -0.519531 1.1875 -0.71875 L 1.1875 -10.375 C 1.1875 -10.582031 1.253906 -10.753906 1.390625 -10.890625 C 1.535156 -11.023438 1.707031 -11.09375 1.90625 -11.09375 C 2.101562 -11.09375 2.269531 -11.023438 2.40625 -10.890625 C 2.539062 -10.753906 2.609375 -10.582031 2.609375 -10.375 Z M 2.609375 -0.71875 "/></g></g></g><g fill="#000000" fill-opacity="1"><g transform="translate(149.97539, 228.317255)"><g><path d="M 2.421875 -0.71875 C 2.421875 -0.519531 2.351562 -0.347656 2.21875 -0.203125 C 2.082031 -0.0664062 1.90625 0 1.6875 0 C 1.488281 0 1.320312 -0.0664062 1.1875 -0.203125 C 1.050781 -0.347656 0.984375 -0.519531 0.984375 -0.71875 L 0.984375 -7.21875 C 0.984375 -7.414062 1.050781 -7.582031 1.1875 -7.71875 C 1.320312 -7.863281 1.488281 -7.9375 1.6875 -7.9375 C 1.90625 -7.9375 2.082031 -7.863281 2.21875 -7.71875 C 2.351562 -7.582031 2.421875 -7.414062 2.421875 -7.21875 Z M 1.6875 -8.921875 C 1.394531 -8.921875 1.1875 -8.972656 1.0625 -9.078125 C 0.9375 -9.179688 0.875 -9.347656 0.875 -9.578125 L 0.875 -9.828125 C 0.875 -10.066406 0.941406 -10.234375 1.078125 -10.328125 C 1.210938 -10.429688 1.421875 -10.484375 1.703125 -10.484375 C 1.984375 -10.484375 2.1875 -10.429688 2.3125 -10.328125 C 2.4375 -10.222656 2.5 -10.054688 2.5 -9.828125 L 2.5 -9.578125 C 2.5 -9.335938 2.429688 -9.164062 2.296875 -9.0625 C 2.171875 -8.96875 1.96875 -8.921875 1.6875 -8.921875 Z M 1.6875 -8.921875 "/></g></g></g><g fill="#000000" fill-opacity="1"><g transform="translate(159.455384, 228.317255)"><g><path d="M 5.0625 -8.046875 C 6.863281 -8.046875 7.765625 -6.960938 7.765625 -4.796875 L 7.765625 -0.71875 C 7.765625 -0.519531 7.695312 -0.347656 7.5625 -0.203125 C 7.425781 -0.0664062 7.253906 0 7.046875 0 C 6.847656 0 6.679688 -0.0664062 6.546875 -0.203125 C 6.410156 -0.347656 6.34375 -0.519531 6.34375 -0.71875 L 6.34375 -4.78125 C 6.34375 -5.375 6.207031 -5.84375 5.9375 -6.1875 C 5.664062 -6.539062 5.226562 -6.71875 4.625 -6.71875 C 4.21875 -6.71875 3.851562 -6.628906 3.53125 -6.453125 C 3.207031 -6.273438 2.953125 -6.039062 2.765625 -5.75 C 2.578125 -5.457031 2.484375 -5.132812 2.484375 -4.78125 L 2.484375 -0.71875 C 2.484375 -0.519531 2.414062 -0.347656 2.28125 -0.203125 C 2.144531 -0.0664062 1.972656 0 1.765625 0 C 1.554688 0 1.382812 -0.0664062 1.25 -0.203125 C 1.125 -0.335938 1.0625 -0.507812 1.0625 -0.71875 L 1.0625 -7.140625 C 1.0625 -7.335938 1.128906 -7.503906 1.265625 -7.640625 C 1.398438 -7.785156 1.566406 -7.859375 1.765625 -7.859375 C 1.972656 -7.859375 2.144531 -7.785156 2.28125 -7.640625 C 2.414062 -7.503906 2.484375 -7.335938 2.484375 -7.140625 L 2.484375 -6.609375 C 2.742188 -7.015625 3.109375 -7.351562 3.578125 -7.625 C 4.046875 -7.90625 4.539062 -8.046875 5.0625 -8.046875 Z M 5.0625 -8.046875 "/></g></g></g><g fill="#000000" fill-opacity="1"><g transform="translate(174.365369, 228.317255)"><g><path d="M 7.96875 -4.234375 C 7.957031 -4.046875 7.878906 -3.890625 7.734375 -3.765625 C 7.597656 -3.640625 7.4375 -3.578125 7.25 -3.578125 L 1.96875 -3.578125 C 2.03125 -2.847656 2.304688 -2.265625 2.796875 -1.828125 C 3.285156 -1.390625 3.878906 -1.171875 4.578125 -1.171875 C 5.054688 -1.171875 5.441406 -1.238281 5.734375 -1.375 C 6.035156 -1.519531 6.304688 -1.703125 6.546875 -1.921875 C 6.691406 -2.015625 6.832031 -2.0625 6.96875 -2.0625 C 7.144531 -2.0625 7.289062 -2 7.40625 -1.875 C 7.519531 -1.75 7.578125 -1.609375 7.578125 -1.453125 C 7.578125 -1.242188 7.476562 -1.054688 7.28125 -0.890625 C 6.988281 -0.597656 6.601562 -0.347656 6.125 -0.140625 C 5.644531 0.0546875 5.15625 0.15625 4.65625 0.15625 C 3.84375 0.15625 3.128906 -0.015625 2.515625 -0.359375 C 1.898438 -0.703125 1.421875 -1.175781 1.078125 -1.78125 C 0.742188 -2.394531 0.578125 -3.085938 0.578125 -3.859375 C 0.578125 -4.691406 0.75 -5.425781 1.09375 -6.0625 C 1.445312 -6.695312 1.90625 -7.1875 2.46875 -7.53125 C 3.03125 -7.875 3.640625 -8.046875 4.296875 -8.046875 C 4.929688 -8.046875 5.53125 -7.878906 6.09375 -7.546875 C 6.65625 -7.210938 7.101562 -6.753906 7.4375 -6.171875 C 7.78125 -5.597656 7.957031 -4.953125 7.96875 -4.234375 Z M 4.296875 -6.71875 C 3.734375 -6.71875 3.242188 -6.5625 2.828125 -6.25 C 2.421875 -5.9375 2.15625 -5.445312 2.03125 -4.78125 L 6.453125 -4.78125 L 6.453125 -4.90625 C 6.398438 -5.4375 6.160156 -5.867188 5.734375 -6.203125 C 5.304688 -6.546875 4.828125 -6.71875 4.296875 -6.71875 Z M 4.296875 -6.71875 "/></g></g></g><g fill="#000000" fill-opacity="1"><g transform="translate(188.990362, 228.317255)"><g/></g></g><g fill="#000000" fill-opacity="1"><g transform="translate(199.220355, 228.317255)"><g><path d="M 5.015625 -8 C 5.691406 -8 6.304688 -7.820312 6.859375 -7.46875 C 7.410156 -7.125 7.84375 -6.640625 8.15625 -6.015625 C 8.46875 -5.398438 8.625 -4.707031 8.625 -3.9375 C 8.625 -3.15625 8.46875 -2.457031 8.15625 -1.84375 C 7.84375 -1.226562 7.410156 -0.742188 6.859375 -0.390625 C 6.304688 -0.0351562 5.703125 0.140625 5.046875 0.140625 C 4.523438 0.140625 4.035156 0.0234375 3.578125 -0.203125 C 3.128906 -0.441406 2.765625 -0.722656 2.484375 -1.046875 L 2.484375 2.28125 C 2.484375 2.476562 2.414062 2.644531 2.28125 2.78125 C 2.144531 2.925781 1.972656 3 1.765625 3 C 1.566406 3 1.398438 2.929688 1.265625 2.796875 C 1.128906 2.660156 1.0625 2.488281 1.0625 2.28125 L 1.0625 -7.15625 C 1.0625 -7.363281 1.125 -7.535156 1.25 -7.671875 C 1.382812 -7.816406 1.554688 -7.890625 1.765625 -7.890625 C 1.972656 -7.890625 2.144531 -7.816406 2.28125 -7.671875 C 2.414062 -7.535156 2.484375 -7.363281 2.484375 -7.15625 L 2.484375 -6.71875 C 2.722656 -7.070312 3.070312 -7.375 3.53125 -7.625 C 4 -7.875 4.492188 -8 5.015625 -8 Z M 4.84375 -1.1875 C 5.300781 -1.1875 5.710938 -1.304688 6.078125 -1.546875 C 6.453125 -1.785156 6.742188 -2.113281 6.953125 -2.53125 C 7.160156 -2.945312 7.265625 -3.414062 7.265625 -3.9375 C 7.265625 -4.445312 7.160156 -4.910156 6.953125 -5.328125 C 6.742188 -5.742188 6.453125 -6.070312 6.078125 -6.3125 C 5.710938 -6.550781 5.300781 -6.671875 4.84375 -6.671875 C 4.375 -6.671875 3.953125 -6.550781 3.578125 -6.3125 C 3.210938 -6.082031 2.925781 -5.753906 2.71875 -5.328125 C 2.519531 -4.910156 2.421875 -4.445312 2.421875 -3.9375 C 2.421875 -3.414062 2.519531 -2.941406 2.71875 -2.515625 C 2.925781 -2.097656 3.210938 -1.769531 3.578125 -1.53125 C 3.953125 -1.300781 4.375 -1.1875 4.84375 -1.1875 Z M 4.84375 -1.1875 "/></g></g></g><g fill="#000000" fill-opacity="1"><g transform="translate(214.505347, 228.317255)"><g><path d="M 8.5 -3.9375 C 8.5 -3.15625 8.320312 -2.453125 7.96875 -1.828125 C 7.625 -1.210938 7.148438 -0.726562 6.546875 -0.375 C 5.941406 -0.0195312 5.273438 0.15625 4.546875 0.15625 C 3.816406 0.15625 3.148438 -0.0195312 2.546875 -0.375 C 1.941406 -0.726562 1.460938 -1.210938 1.109375 -1.828125 C 0.753906 -2.453125 0.578125 -3.15625 0.578125 -3.9375 C 0.578125 -4.707031 0.753906 -5.40625 1.109375 -6.03125 C 1.460938 -6.664062 1.941406 -7.160156 2.546875 -7.515625 C 3.148438 -7.867188 3.816406 -8.046875 4.546875 -8.046875 C 5.273438 -8.046875 5.941406 -7.867188 6.546875 -7.515625 C 7.148438 -7.160156 7.625 -6.664062 7.96875 -6.03125 C 8.320312 -5.40625 8.5 -4.707031 8.5 -3.9375 Z M 7.078125 -3.9375 C 7.078125 -4.46875 6.960938 -4.945312 6.734375 -5.375 C 6.515625 -5.800781 6.210938 -6.128906 5.828125 -6.359375 C 5.441406 -6.597656 5.015625 -6.71875 4.546875 -6.71875 C 4.078125 -6.71875 3.648438 -6.597656 3.265625 -6.359375 C 2.878906 -6.128906 2.570312 -5.800781 2.34375 -5.375 C 2.125 -4.945312 2.015625 -4.46875 2.015625 -3.9375 C 2.015625 -3.40625 2.125 -2.925781 2.34375 -2.5 C 2.570312 -2.082031 2.878906 -1.753906 3.265625 -1.515625 C 3.648438 -1.285156 4.078125 -1.171875 4.546875 -1.171875 C 5.015625 -1.171875 5.441406 -1.285156 5.828125 -1.515625 C 6.210938 -1.753906 6.515625 -2.082031 6.734375 -2.5 C 6.960938 -2.925781 7.078125 -3.40625 7.078125 -3.9375 Z M 7.078125 -3.9375 "/></g></g></g><g fill="#000000" fill-opacity="1"><g transform="translate(229.670347, 228.317255)"><g><path d="M 7.484375 -1.25 C 7.628906 -1.082031 7.703125 -0.90625 7.703125 -0.71875 C 7.703125 -0.519531 7.625 -0.351562 7.46875 -0.21875 C 7.320312 -0.0820312 7.160156 -0.015625 6.984375 -0.015625 C 6.765625 -0.015625 6.59375 -0.09375 6.46875 -0.25 L 3.515625 -3.390625 L 2.609375 -2.578125 L 2.609375 -0.71875 C 2.609375 -0.519531 2.539062 -0.347656 2.40625 -0.203125 C 2.269531 -0.0664062 2.101562 0 1.90625 0 C 1.695312 0 1.523438 -0.0664062 1.390625 -0.203125 C 1.253906 -0.347656 1.1875 -0.519531 1.1875 -0.71875 L 1.1875 -10.375 C 1.1875 -10.582031 1.253906 -10.753906 1.390625 -10.890625 C 1.523438 -11.023438 1.695312 -11.09375 1.90625 -11.09375 C 2.101562 -11.09375 2.269531 -11.023438 2.40625 -10.890625 C 2.539062 -10.753906 2.609375 -10.582031 2.609375 -10.375 L 2.609375 -4.296875 L 6.28125 -7.671875 C 6.457031 -7.816406 6.632812 -7.890625 6.8125 -7.890625 C 6.976562 -7.890625 7.128906 -7.816406 7.265625 -7.671875 C 7.410156 -7.523438 7.484375 -7.375 7.484375 -7.21875 C 7.484375 -7.019531 7.390625 -6.835938 7.203125 -6.671875 L 4.609375 -4.359375 Z M 7.484375 -1.25 "/></g></g></g><g fill="#000000" fill-opacity="1"><g transform="translate(244.070343, 228.317255)"><g><path d="M 7.4375 -7.96875 C 7.644531 -7.96875 7.816406 -7.898438 7.953125 -7.765625 C 8.085938 -7.628906 8.15625 -7.453125 8.15625 -7.234375 L 8.15625 -0.71875 C 8.15625 -0.519531 8.085938 -0.347656 7.953125 -0.203125 C 7.816406 -0.0664062 7.644531 0 7.4375 0 C 7.226562 0 7.054688 -0.0664062 6.921875 -0.203125 C 6.796875 -0.335938 6.734375 -0.507812 6.734375 -0.71875 L 6.734375 -1.109375 C 6.472656 -0.753906 6.117188 -0.453125 5.671875 -0.203125 C 5.222656 0.0351562 4.738281 0.15625 4.21875 0.15625 C 3.53125 0.15625 2.910156 -0.0195312 2.359375 -0.375 C 1.804688 -0.726562 1.367188 -1.21875 1.046875 -1.84375 C 0.734375 -2.46875 0.578125 -3.164062 0.578125 -3.9375 C 0.578125 -4.71875 0.734375 -5.421875 1.046875 -6.046875 C 1.367188 -6.671875 1.804688 -7.160156 2.359375 -7.515625 C 2.910156 -7.867188 3.515625 -8.046875 4.171875 -8.046875 C 4.703125 -8.046875 5.191406 -7.929688 5.640625 -7.703125 C 6.097656 -7.484375 6.460938 -7.207031 6.734375 -6.875 L 6.734375 -7.234375 C 6.734375 -7.441406 6.796875 -7.613281 6.921875 -7.75 C 7.054688 -7.894531 7.226562 -7.96875 7.4375 -7.96875 Z M 4.375 -1.171875 C 4.84375 -1.171875 5.257812 -1.289062 5.625 -1.53125 C 6 -1.769531 6.285156 -2.097656 6.484375 -2.515625 C 6.691406 -2.941406 6.796875 -3.414062 6.796875 -3.9375 C 6.796875 -4.457031 6.691406 -4.925781 6.484375 -5.34375 C 6.285156 -5.769531 6 -6.101562 5.625 -6.34375 C 5.257812 -6.59375 4.84375 -6.71875 4.375 -6.71875 C 3.90625 -6.71875 3.488281 -6.597656 3.125 -6.359375 C 2.757812 -6.117188 2.472656 -5.785156 2.265625 -5.359375 C 2.066406 -4.941406 1.96875 -4.46875 1.96875 -3.9375 C 1.96875 -3.414062 2.066406 -2.941406 2.265625 -2.515625 C 2.472656 -2.097656 2.757812 -1.769531 3.125 -1.53125 C 3.488281 -1.289062 3.90625 -1.171875 4.375 -1.171875 Z M 4.375 -1.171875 "/></g></g></g><g fill="#000000" fill-opacity="1"><g transform="translate(259.355335, 228.317255)"><g><path d="M 5.0625 -8.046875 C 6.863281 -8.046875 7.765625 -6.960938 7.765625 -4.796875 L 7.765625 -0.71875 C 7.765625 -0.519531 7.695312 -0.347656 7.5625 -0.203125 C 7.425781 -0.0664062 7.253906 0 7.046875 0 C 6.847656 0 6.679688 -0.0664062 6.546875 -0.203125 C 6.410156 -0.347656 6.34375 -0.519531 6.34375 -0.71875 L 6.34375 -4.78125 C 6.34375 -5.375 6.207031 -5.84375 5.9375 -6.1875 C 5.664062 -6.539062 5.226562 -6.71875 4.625 -6.71875 C 4.21875 -6.71875 3.851562 -6.628906 3.53125 -6.453125 C 3.207031 -6.273438 2.953125 -6.039062 2.765625 -5.75 C 2.578125 -5.457031 2.484375 -5.132812 2.484375 -4.78125 L 2.484375 -0.71875 C 2.484375 -0.519531 2.414062 -0.347656 2.28125 -0.203125 C 2.144531 -0.0664062 1.972656 0 1.765625 0 C 1.554688 0 1.382812 -0.0664062 1.25 -0.203125 C 1.125 -0.335938 1.0625 -0.507812 1.0625 -0.71875 L 1.0625 -7.140625 C 1.0625 -7.335938 1.128906 -7.503906 1.265625 -7.640625 C 1.398438 -7.785156 1.566406 -7.859375 1.765625 -7.859375 C 1.972656 -7.859375 2.144531 -7.785156 2.28125 -7.640625 C 2.414062 -7.503906 2.484375 -7.335938 2.484375 -7.140625 L 2.484375 -6.609375 C 2.742188 -7.015625 3.109375 -7.351562 3.578125 -7.625 C 4.046875 -7.90625 4.539062 -8.046875 5.0625 -8.046875 Z M 5.0625 -8.046875 "/></g></g></g><g fill="#000000" fill-opacity="1"><g transform="translate(274.265326, 228.317255)"><g><path d="M 2.421875 -0.71875 C 2.421875 -0.519531 2.351562 -0.347656 2.21875 -0.203125 C 2.082031 -0.0664062 1.90625 0 1.6875 0 C 1.488281 0 1.320312 -0.0664062 1.1875 -0.203125 C 1.050781 -0.347656 0.984375 -0.519531 0.984375 -0.71875 L 0.984375 -7.21875 C 0.984375 -7.414062 1.050781 -7.582031 1.1875 -7.71875 C 1.320312 -7.863281 1.488281 -7.9375 1.6875 -7.9375 C 1.90625 -7.9375 2.082031 -7.863281 2.21875 -7.71875 C 2.351562 -7.582031 2.421875 -7.414062 2.421875 -7.21875 Z M 1.6875 -8.921875 C 1.394531 -8.921875 1.1875 -8.972656 1.0625 -9.078125 C 0.9375 -9.179688 0.875 -9.347656 0.875 -9.578125 L 0.875 -9.828125 C 0.875 -10.066406 0.941406 -10.234375 1.078125 -10.328125 C 1.210938 -10.429688 1.421875 -10.484375 1.703125 -10.484375 C 1.984375 -10.484375 2.1875 -10.429688 2.3125 -10.328125 C 2.4375 -10.222656 2.5 -10.054688 2.5 -9.828125 L 2.5 -9.578125 C 2.5 -9.335938 2.429688 -9.164062 2.296875 -9.0625 C 2.171875 -8.96875 1.96875 -8.921875 1.6875 -8.921875 Z M 1.6875 -8.921875 "/></g></g></g><g fill="#000000" fill-opacity="1"><g transform="translate(309.871712, 191.067263)"><g><path d="M 6.296875 -35.90625 L 6.296875 -49.28125 L 18.6875 -49.28125 L 18.6875 -35.90625 L 26.25 -35.90625 L 26.25 -26.453125 L 18.6875 -26.453125 L 18.6875 -15.046875 C 18.6875 -11.734375 19.617188 -10.078125 21.484375 -10.078125 C 21.953125 -10.078125 22.441406 -10.171875 22.953125 -10.359375 C 23.472656 -10.546875 23.875 -10.734375 24.15625 -10.921875 L 24.5625 -11.203125 L 27.65625 -1.1875 C 24.988281 0.300781 21.953125 1.046875 18.546875 1.046875 C 16.210938 1.046875 14.207031 0.640625 12.53125 -0.171875 C 10.851562 -0.992188 9.582031 -2.09375 8.71875 -3.46875 C 7.851562 -4.84375 7.234375 -6.285156 6.859375 -7.796875 C 6.484375 -9.316406 6.296875 -10.941406 6.296875 -12.671875 L 6.296875 -26.453125 L 1.125 -26.453125 L 1.125 -35.90625 Z M 6.296875 -35.90625 "/></g></g></g><g fill="#000000" fill-opacity="1"><g transform="translate(334.440202, 191.067263)"><g><path d="M 5.390625 -55.921875 C 6.835938 -57.367188 8.5625 -58.09375 10.5625 -58.09375 C 12.570312 -58.09375 14.300781 -57.367188 15.75 -55.921875 C 17.195312 -54.484375 17.921875 -52.757812 17.921875 -50.75 C 17.921875 -48.738281 17.195312 -47.007812 15.75 -45.5625 C 14.300781 -44.125 12.570312 -43.40625 10.5625 -43.40625 C 8.5625 -43.40625 6.835938 -44.125 5.390625 -45.5625 C 3.941406 -47.007812 3.21875 -48.738281 3.21875 -50.75 C 3.21875 -52.757812 3.941406 -54.484375 5.390625 -55.921875 Z M 4.203125 -35.90625 L 4.203125 0 L 16.59375 0 L 16.59375 -35.90625 Z M 4.203125 -35.90625 "/></g></g></g></svg>