<svg xmlns="http://www.w3.org/2000/svg" xmlns:xlink="http://www.w3.org/1999/xlink" width="500" zoomAndPan="magnify" viewBox="0 0 375 374.999991" height="500" preserveAspectRatio="xMidYMid meet" version="1.0"><defs><g/></defs><g fill="#000000" fill-opacity="1"><g transform="translate(16.158354, 266.994688)"><g><path d="M 25.15625 -16.8125 C 12.445312 -30.675781 6.09375 -47.671875 6.09375 -67.796875 C 6.09375 -87.921875 12.445312 -104.957031 25.15625 -118.90625 C 37.863281 -132.851562 54.019531 -139.828125 73.625 -139.828125 C 91.632812 -139.828125 106.460938 -134.175781 118.109375 -122.875 L 118.109375 -227.75 L 164.984375 -227.75 L 164.984375 0 L 118.640625 0 L 118.640625 -15.359375 L 118.109375 -15.359375 C 106.460938 -2.472656 91.632812 3.96875 73.625 3.96875 C 54.019531 3.96875 37.863281 -2.957031 25.15625 -16.8125 Z M 65.015625 -90.828125 C 58.921875 -84.828125 55.875 -77.148438 55.875 -67.796875 C 55.875 -58.441406 58.785156 -50.804688 64.609375 -44.890625 C 70.441406 -38.972656 78.125 -36.015625 87.65625 -36.015625 C 96.832031 -36.015625 104.378906 -39.015625 110.296875 -45.015625 C 116.210938 -51.023438 119.171875 -58.617188 119.171875 -67.796875 C 119.171875 -77.148438 116.125 -84.828125 110.03125 -90.828125 C 103.945312 -96.835938 96.488281 -99.84375 87.65625 -99.84375 C 78.65625 -99.84375 71.109375 -96.835938 65.015625 -90.828125 Z M 65.015625 -90.828125 "/></g></g></g><g fill="#000000" fill-opacity="1"><g transform="translate(172.09852, 266.994688)"><g><path d="M 9.796875 33.375 L 48.203125 14.5625 C 55.265625 26.21875 67.535156 32.046875 85.015625 32.046875 C 93.128906 32.046875 100.671875 29.441406 107.640625 24.234375 C 114.617188 19.023438 118.109375 11.035156 118.109375 0.265625 L 118.109375 -9.796875 C 109.816406 -0.617188 94.988281 3.96875 73.625 3.96875 C 54.019531 3.96875 37.863281 -2.957031 25.15625 -16.8125 C 12.445312 -30.675781 6.09375 -47.671875 6.09375 -67.796875 C 6.09375 -87.921875 12.445312 -104.957031 25.15625 -118.90625 C 37.863281 -132.851562 54.019531 -139.828125 73.625 -139.828125 C 91.101562 -139.828125 105.664062 -134.441406 117.3125 -123.671875 L 118.109375 -123.671875 L 118.109375 -135.859375 L 164.984375 -135.859375 L 164.984375 3.703125 C 164.984375 25.773438 157.65625 42.8125 143 54.8125 C 128.351562 66.820312 109.023438 72.828125 85.015625 72.828125 C 46.171875 72.828125 21.097656 59.675781 9.796875 33.375 Z M 65.015625 -90.828125 C 58.921875 -84.828125 55.875 -77.148438 55.875 -67.796875 C 55.875 -58.441406 58.785156 -50.804688 64.609375 -44.890625 C 70.441406 -38.972656 78.125 -36.015625 87.65625 -36.015625 C 96.832031 -36.015625 104.378906 -39.015625 110.296875 -45.015625 C 116.210938 -51.023438 119.171875 -58.617188 119.171875 -67.796875 C 119.171875 -77.148438 116.125 -84.828125 110.03125 -90.828125 C 103.945312 -96.835938 96.488281 -99.84375 87.65625 -99.84375 C 78.65625 -99.84375 71.109375 -96.835938 65.015625 -90.828125 Z M 65.015625 -90.828125 "/></g></g></g></svg>