<svg xmlns="http://www.w3.org/2000/svg" xmlns:xlink="http://www.w3.org/1999/xlink" width="500" zoomAndPan="magnify" viewBox="0 0 375 374.999991" height="500" preserveAspectRatio="xMidYMid meet" version="1.0"><defs><g/></defs><g fill="#000000" fill-opacity="1"><g transform="translate(60.429452, 318.690698)"><g><path d="M 19.46875 -267.6875 L 97.015625 -267.6875 C 134.222656 -267.6875 166.019531 -254.976562 192.40625 -229.5625 C 218.800781 -204.144531 232 -172.289062 232 -134 C 232 -95.5 218.859375 -63.539062 192.578125 -38.125 C 166.296875 -12.707031 134.441406 0 97.015625 0 L 19.46875 0 Z M 80.46875 -54.515625 L 89.875 -54.515625 C 112.15625 -54.515625 130.378906 -62.03125 144.546875 -77.0625 C 158.710938 -92.09375 165.90625 -110.96875 166.125 -133.6875 C 166.125 -156.394531 159.039062 -175.316406 144.875 -190.453125 C 130.707031 -205.597656 112.375 -213.171875 89.875 -213.171875 L 80.46875 -213.171875 Z M 80.46875 -54.515625 "/></g></g></g></svg>