<?xml version="1.0" encoding="utf-8"?>
<!-- Generator: Adobe Illustrator 23.0.1, SVG Export Plug-In . SVG Version: 6.00 Build 0)  -->
<svg version="1.1" id="Layer_1" xmlns="http://www.w3.org/2000/svg" xmlns:xlink="http://www.w3.org/1999/xlink" x="0px" y="0px"
	 viewBox="0 0 1203.5 341.9" style="enable-background:new 0 0 1203.5 341.9;" xml:space="preserve">
<style type="text/css">
	.st0{fill-rule:evenodd;clip-rule:evenodd;fill:#FFFFFF;}
	.st1{fill:#FFFFFF;}
	.st2{fill:#1A1A18;}
	.st3{fill-rule:evenodd;clip-rule:evenodd;fill:#1A1A18;}
	.st4{fill:none;stroke:#FFFFFF;stroke-width:0.216;stroke-miterlimit:2.6131;}
</style>
<g>
	<polygon class="st0" points="1166.6,210.3 1134.2,118 1100.9,210.3 1064.2,210.3 1115.5,76.5 1153.4,76.5 1203.7,210.3 	"/>
	<path class="st0" d="M956.3,198.2l14.8-28.1c9.6,9.1,19.9,13.6,30.7,13.6c6.2,0,10.6-1.5,13.4-4.6c2.3-2.3,3.4-5.1,3.4-8.4
		c0-3.2-1.3-5.9-3.8-8c-2.1-1.9-7.9-4.2-17.2-7l-9-2.8c-9-2.8-15.4-6.4-19.2-10.8c-5.1-5.5-7.6-13.4-7.6-23.7
		c0-13.4,4.1-24.1,12.2-32.3c8.4-8.4,19.9-12.6,34.3-12.6c13.8,0,27.6,3.6,41.3,10.8l-13.8,27.1c-7.6-6-15.2-9-22.9-9
		c-4.8,0-8.6,1.3-11.4,4c-2.3,2.3-3.4,4.7-3.4,7.2c0,2.4,0.6,4.4,1.8,6c1.9,2.3,5.8,4.3,11.6,6l10.6,3.2
		c11.2,3.5,19.3,7.9,24.3,13.2c5.7,6.2,8.6,14.1,8.6,23.9c0,14-4.2,25.3-12.6,33.7c-9.1,9.1-22.3,13.6-39.5,13.6
		c-9.5,0-18.2-1.5-26.3-4.4C969.7,206.4,962.9,202.9,956.3,198.2"/>
	<path class="st0" d="M817.7,76.5h34.7v79.2c0,9.4,2.3,16.3,6.8,20.7c4.5,4.3,10,6.4,16.4,6.4s11.8-1.9,16-5.8
		c2.4-2.1,4.3-4.8,5.5-8.1c1.3-3.3,2-5.9,2.1-7.8c0.1-1.9,0.2-4.7,0.2-8.3V76.5h34.7v76.8c0,5.9-0.2,10.7-0.6,14.5
		c-0.4,3.8-1.8,8.4-4.1,13.8c-2.3,5.4-5.8,10.4-10.3,14.9c-11,11.1-25.7,16.7-44.1,16.7c-19.5,0-34.3-5.4-44.3-16
		c-8.7-9.5-13-24.1-13-43.9L817.7,76.5L817.7,76.5z"/>
	<path class="st0" d="M726.6,161.5v-27.1h69c0,13.8-1.6,25.4-4.9,35c-3.3,9.6-8.8,18-16.5,25.2c-12,11.2-27.7,16.8-47.1,16.8
		c-21.3,0-38.4-6.6-51.4-19.9c-12.8-12.8-19.2-29-19.2-48.3c0-20.3,6.7-37,20.1-50.1C689.7,80,707,73.4,728.5,73.4
		c14.2,0,26.2,3,36.1,9C775,88.8,783,98,788.5,109.9l-33.1,13.6c-2.1-5.4-5.3-9.8-9.6-13.4c-5.4-4.4-11.6-6.6-18.7-6.6
		c-9.1,0-16.7,3.1-22.9,9.2c-7.8,7.8-11.6,18-11.6,30.7c0,11.8,3.5,21.4,10.6,28.9c6.4,6.8,14.6,10.2,24.5,10.2
		c7.9,0,14.3-2.1,19.2-6.2c4.4-3.6,7.2-8.6,8.2-14.8L726.6,161.5L726.6,161.5z"/>
	<polygon class="st0" points="609.9,210.3 577.4,118 544.1,210.3 507.4,210.3 558.7,76.5 596.6,76.5 647,210.3 	"/>
	<path class="st0" d="M429,103.3v33.1h6.6c7.5,0,13.1-1.8,16.9-5.4c2.9-2.9,4.4-6.7,4.4-11.2c0-4.7-1.5-8.4-4.6-11.2
		c-3.5-3.5-9-5.2-16.7-5.2H429V103.3z M394.3,76.5h54.2c14.2,0,25.1,3.9,32.7,11.8c7.6,7.8,11.4,17.8,11.4,30.1
		c0,11.8-3.5,21.1-10.6,27.9c-4.9,4.7-11.1,7.8-18.4,9.2l41.9,54.8h-43.1L429,158.9v51.4h-34.7V76.5z"/>
	<path class="st1" d="M1202.5,252.3l-5,3.3c-1-1.7-2.4-2.5-4.1-2.5c-0.9,0-1.6,0.3-2.1,0.8c-0.4,0.4-0.6,0.9-0.6,1.5
		c0,0.7,0.3,1.2,1,1.7c0.1,0.1,0.3,0.2,0.4,0.2c0.1,0.1,0.4,0.2,0.8,0.4c0.4,0.2,0.7,0.4,1.1,0.6l3.4,1.7c1.9,1,3.3,1.9,4.1,2.7
		c1.4,1.4,2.1,3.2,2.1,5.4c0,2.6-0.9,4.8-2.6,6.7c-2,2.2-4.7,3.3-8.1,3.3c-2.6,0-4.7-0.6-6.3-1.9c-1.8-1.3-3-3.1-3.7-5.3l5.5-2.6
		c0.5,1.3,1,2.3,1.6,2.8c0.7,0.7,1.7,1.1,3,1.1c1.2,0,2.1-0.3,2.8-1c0.6-0.6,1-1.4,1-2.3c0-0.8-0.3-1.6-0.9-2.2s-1.6-1.3-2.9-1.8
		l-2.5-1.2c-1.9-0.9-3.3-1.8-4-2.5c-1.4-1.3-2.1-3-2.1-4.9c0-2.5,0.8-4.5,2.4-6.2c1.7-1.9,4.1-2.8,7.1-2.8c2.1,0,3.9,0.5,5.4,1.5
		C1200.5,249.6,1201.7,250.8,1202.5,252.3 M1180.2,254.2h-5.2v22.9h-6.8v-22.9h-2.8V248h2.8v-10.7h6.8V248h5.2V254.2z M1134.5,277.1
		V248h6.8v2.7c2.1-2.3,4.7-3.5,7.9-3.5c3.8,0,6.7,1.3,8.6,4c1.2,1.7,1.8,4.4,1.8,8.1v17.9h-6.8V261c0-1.8-0.1-3.2-0.4-4.3
		c-0.3-1.1-0.7-1.9-1.3-2.3c-0.6-0.4-1.1-0.7-1.6-0.8s-1.1-0.2-2-0.2c-1,0-1.7,0.1-2.3,0.2c-0.6,0.2-1.2,0.5-1.9,1.1
		c-0.7,0.6-1.2,1.6-1.5,3s-0.5,3.2-0.5,5.5v14L1134.5,277.1L1134.5,277.1z M1107.2,258.6h13.5c-0.3-1.6-1-2.9-2.1-4
		c-1.2-1.1-2.7-1.7-4.6-1.7s-3.5,0.6-4.8,1.9C1108.2,255.8,1107.6,257.1,1107.2,258.6z M1121.7,267.3l5.7,3.2
		c-1.3,2.3-2.9,4.1-4.9,5.3c-2.2,1.5-5.1,2.2-8.6,2.2c-4,0-7.3-1.2-9.8-3.7c-2.9-2.9-4.3-6.6-4.3-11.2c0-4.8,1.5-8.8,4.6-12
		c2.6-2.6,5.9-4,9.7-4c3.8,0,6.9,1.3,9.3,3.8c2.7,2.8,4.1,6.9,4.1,12.3v0.8h-20.8c0.2,2.5,1,4.4,2.5,5.9c1.2,1.2,3,1.9,5.2,1.9
		c1.8,0,3.3-0.5,4.6-1.5C1120,269.7,1120.9,268.6,1121.7,267.3z M1067.4,248h7.6l7.4,16.6l7.5-16.6h7.6l-15,31.3L1067.4,248z
		 M1063.4,230.9v6.7H1045v11.7h17.8v6.7H1045v14.6h18.4v6.7H1038v-46.2h25.4V230.9z M991.4,246.5l2.5-1.9c1.8-1.3,2.8-2.8,2.8-4.6
		c0-1.1-0.4-2.1-1.1-2.9c-0.8-0.8-1.9-1.2-3.4-1.2c-1.4,0-2.5,0.4-3.3,1.1c-0.8,0.8-1.2,1.7-1.2,2.9c0,1.4,0.5,2.8,1.6,4
		L991.4,246.5z M999,266.5l-9.1-11.1c-2.1,1.2-3.8,2.4-5,3.8c-1.7,1.8-2.5,3.8-2.5,5.9c0,1.9,0.7,3.6,2,5s3.1,2,5.2,2
		c1.7,0,3.4-0.6,5.2-1.8C995.9,269.4,997.3,268.2,999,266.5z M1008.8,255.4l4.5,4.7l-5.4,6.3l8.5,10.7h-8.6l-4.6-5.7
		c-1.2,1.3-2.5,2.4-3.9,3.4c-3,2.1-6.3,3.2-10.1,3.2c-4.2,0-7.6-1.2-10.1-3.7s-3.7-5.7-3.7-9.5c0-2.8,0.6-5.1,1.7-6.9
		c1.2-1.8,2.8-3.5,4.9-5.1c1.4-1,2.6-1.9,3.7-2.6c-3-3-4.6-6.2-4.6-9.6c0-2.9,0.9-5.4,2.8-7.5c1.9-2.1,4.6-3.2,8.1-3.2
		c3.4,0,6.2,1,8.1,3c2,2,2.9,4.3,2.9,7c0,2.2-0.7,4.2-2,6c-1.2,1.6-3.1,3.4-5.7,5.3l8.1,10L1008.8,255.4z M952.9,252.3l-5,3.3
		c-1-1.7-2.4-2.5-4.1-2.5c-0.9,0-1.6,0.3-2.1,0.8c-0.4,0.4-0.6,0.9-0.6,1.5c0,0.7,0.3,1.2,1,1.7c0.1,0.1,0.3,0.2,0.4,0.2
		c0.1,0.1,0.4,0.2,0.8,0.4c0.4,0.2,0.7,0.4,1.1,0.6l3.4,1.7c1.9,1,3.3,1.9,4.1,2.7c1.4,1.4,2.1,3.2,2.1,5.4c0,2.6-0.9,4.8-2.6,6.7
		c-2,2.2-4.7,3.3-8.1,3.3c-2.6,0-4.7-0.6-6.3-1.9c-1.8-1.3-3-3.1-3.7-5.3l5.5-2.6c0.5,1.3,1,2.3,1.6,2.8c0.7,0.7,1.7,1.1,3,1.1
		c1.2,0,2.1-0.3,2.8-1c0.6-0.6,1-1.4,1-2.3c0-0.8-0.3-1.6-0.9-2.2c-0.6-0.6-1.6-1.3-2.9-1.8l-2.5-1.2c-1.9-0.9-3.3-1.8-4-2.5
		c-1.4-1.3-2.1-3-2.1-4.9c0-2.5,0.8-4.5,2.4-6.2c1.7-1.9,4.1-2.8,7.1-2.8c2.1,0,3.9,0.5,5.4,1.5
		C950.9,249.6,952.1,250.8,952.9,252.3z M912,253.3c-2.1,0-3.8,0.6-5.1,1.9c-2,1.8-3,4.3-3,7.4c0,3.2,1,5.6,2.9,7.4
		c1.5,1.3,3.2,1.9,5.2,1.9c2.2,0,4.1-0.8,5.7-2.4c1.7-1.8,2.5-4.1,2.5-6.9c0-3.1-0.9-5.6-2.8-7.3C916.1,254,914.3,253.3,912,253.3z
		 M919.8,251.1V248h6.8v26.8c0,3.8-0.3,6.9-1,9.3c-0.6,2.4-1.9,4.4-3.8,5.9c-2.5,2.1-5.8,3.1-9.7,3.1c-4,0-7.1-1.2-9.5-3.6
		c-2.3-2.4-3.8-5.4-4.3-9.1h6.6c0.3,1.8,1,3.4,2.1,4.6c1.2,1.3,3,2,5.2,2c2.3,0,4-0.6,5.3-1.9c1.5-1.4,2.2-3.9,2.2-7.3V274
		c-2.2,2.8-5.1,4.2-8.8,4.2c-3.9,0-7.1-1.3-9.6-3.9c-2.9-3.1-4.3-6.9-4.3-11.6s1.4-8.4,4.3-11.3c2.6-2.7,5.9-4,9.9-4
		C914.7,247.2,917.6,248.5,919.8,251.1z M865,277.1V248h6.8v2.7c2.1-2.3,4.7-3.5,7.9-3.5c3.8,0,6.7,1.3,8.6,4
		c1.2,1.7,1.8,4.4,1.8,8.1v17.9h-6.8V261c0-1.8-0.1-3.2-0.4-4.3c-0.3-1.1-0.7-1.9-1.3-2.3c-0.6-0.4-1.1-0.7-1.6-0.8s-1.1-0.2-2-0.2
		c-1,0-1.7,0.1-2.3,0.2c-0.6,0.2-1.2,0.5-1.9,1.1s-1.2,1.6-1.5,3s-0.5,3.2-0.5,5.5v14L865,277.1L865,277.1z M850.1,239
		c-0.8-0.8-1.2-1.9-1.2-3.1c0-1.3,0.4-2.3,1.2-3.1s1.9-1.2,3.1-1.2c1.2,0,2.3,0.4,3.1,1.2s1.2,1.9,1.2,3.1c0,1.2-0.4,2.3-1.2,3.1
		s-1.9,1.3-3.1,1.3C851.9,240.3,850.9,239.8,850.1,239z M849.8,248h6.8v29.2h-6.8V248z M826.7,253.3c-2.4,0-4.3,0.9-5.8,2.7
		c-1.5,1.8-2.2,4-2.2,6.7c0,2.6,0.7,4.8,2.2,6.6c1.5,1.8,3.4,2.7,5.8,2.7c2.3,0,4.2-0.8,5.8-2.4s2.4-3.9,2.4-6.8c0-3-0.8-5.3-2.4-7
		C830.9,254.1,829,253.3,826.7,253.3z M834.5,251.4v-24.8h6.8v50.5h-6.8v-3c-2.3,2.6-5.2,3.9-8.7,3.9c-4.3,0-7.7-1.5-10.2-4.6
		c-2.5-3-3.8-6.7-3.8-10.9c0-4.6,1.4-8.3,4.1-11.1c2.7-2.8,6.1-4.2,10-4.2C829.5,247.2,832.3,248.6,834.5,251.4z M790.1,253.3
		c-2.4,0-4.3,0.9-5.8,2.7c-1.5,1.8-2.2,4-2.2,6.7c0,2.6,0.7,4.8,2.2,6.6c1.5,1.8,3.4,2.7,5.8,2.7c2.3,0,4.2-0.8,5.8-2.4
		s2.4-3.9,2.4-6.8c0-3-0.8-5.3-2.4-7C794.3,254.1,792.4,253.3,790.1,253.3z M797.9,251.4v-24.8h6.8v50.5h-6.8v-3
		c-2.3,2.6-5.2,3.9-8.7,3.9c-4.3,0-7.7-1.5-10.2-4.6c-2.5-3-3.8-6.7-3.8-10.9c0-4.6,1.4-8.3,4.1-11.1c2.7-2.8,6.1-4.2,10-4.2
		C792.9,247.2,795.8,248.6,797.9,251.4z M749.2,258.6h13.5c-0.3-1.6-1-2.9-2.1-4c-1.2-1.1-2.7-1.7-4.6-1.7c-1.9,0-3.5,0.6-4.8,1.9
		C750.3,255.8,749.6,257.1,749.2,258.6z M763.7,267.3l5.7,3.2c-1.3,2.3-2.9,4.1-4.9,5.3c-2.2,1.5-5.1,2.2-8.6,2.2
		c-4,0-7.3-1.2-9.8-3.7c-2.9-2.9-4.3-6.6-4.3-11.2c0-4.8,1.5-8.8,4.6-12c2.6-2.6,5.9-4,9.7-4s6.9,1.3,9.3,3.8
		c2.7,2.8,4.1,6.9,4.1,12.3v0.8h-20.8c0.2,2.5,1,4.4,2.5,5.9c1.2,1.2,3,1.9,5.2,1.9c1.8,0,3.3-0.5,4.6-1.5
		C762.1,269.7,763,268.6,763.7,267.3z M676.6,230.9h7.6l12.1,30.9l12.4-33.1l12,33.1l12.6-30.9h7.6l-20.6,49.2l-12-32.8l-12.1,32.8
		L676.6,230.9z M639.6,294.5v-69.3h6.6v69.3H639.6z M591.9,253.3c-2.3,0-4.2,0.8-5.8,2.5c-1.6,1.6-2.4,4-2.4,7
		c0,2.9,0.8,5.2,2.4,6.8c1.6,1.6,3.5,2.4,5.8,2.4c2.4,0,4.3-0.9,5.8-2.7c1.5-1.8,2.2-4,2.2-6.6s-0.8-4.8-2.2-6.7
		C596.2,254.2,594.3,253.3,591.9,253.3z M584.1,273.7V293h-6.8v-45h6.8v3.2c2.2-2.6,5.1-4,8.6-4c4,0,7.3,1.4,10,4.2s4.1,6.5,4.1,11
		c0,4.7-1.4,8.4-4.3,11.3c-2.9,2.9-6.1,4.3-9.8,4.3C589.3,278,586.4,276.6,584.1,273.7z M548.5,269.4c1.6,1.7,3.7,2.5,6.3,2.5
		s4.7-0.8,6.3-2.5s2.3-3.9,2.3-6.8c0-3.1-0.8-5.4-2.5-7s-3.7-2.4-6.1-2.4c-2.4,0-4.4,0.8-6.1,2.4c-1.7,1.6-2.5,3.9-2.5,7
		C546.1,265.5,546.9,267.7,548.5,269.4z M543.7,251.5c3-2.9,6.7-4.3,11.1-4.3c4.4,0,8.1,1.4,11.1,4.3c3,2.9,4.4,6.6,4.4,11.1
		c0,4.4-1.5,8.1-4.4,11.1c-3,2.9-6.7,4.4-11.1,4.4c-4.4,0-8.1-1.5-11.1-4.4s-4.5-6.6-4.5-11.1S540.7,254.4,543.7,251.5z
		 M536.2,254.2H531v22.9h-6.8v-22.9h-2.8V248h2.8v-10.7h6.8V248h5.2V254.2z M518,254.2h-7.3v22.9H504v-22.9h-2.9V248h2.9v-10.1
		c0-4.1,0.9-7.1,2.8-9.2c1.8-1.9,4.1-2.8,6.9-2.8c1.6,0,3.1,0.3,4.3,0.8v6.7c-1.2-0.7-2.2-1-3.2-1c-1.3,0-2.3,0.4-3,1.1
		c-0.7,0.7-1.1,1.9-1.1,3.5v11h7.3V254.2z M474.4,269.4c1.6,1.7,3.7,2.5,6.3,2.5c2.6,0,4.7-0.8,6.3-2.5c1.6-1.7,2.3-3.9,2.3-6.8
		c0-3.1-0.8-5.4-2.5-7s-3.7-2.4-6.1-2.4s-4.4,0.8-6.1,2.4c-1.7,1.6-2.5,3.9-2.5,7C472.1,265.5,472.9,267.7,474.4,269.4z
		 M469.6,251.5c3-2.9,6.7-4.3,11.1-4.3s8.1,1.4,11.1,4.3c3,2.9,4.4,6.6,4.4,11.1c0,4.4-1.5,8.1-4.4,11.1c-3,2.9-6.7,4.4-11.1,4.4
		s-8.1-1.5-11.1-4.4s-4.5-6.6-4.5-11.1C465.2,258.1,466.7,254.4,469.6,251.5z M437.9,269.4c1.6,1.7,3.7,2.5,6.3,2.5
		c2.6,0,4.7-0.8,6.3-2.5c1.6-1.7,2.3-3.9,2.3-6.8c0-3.1-0.8-5.4-2.5-7s-3.7-2.4-6.1-2.4s-4.4,0.8-6.1,2.4c-1.7,1.6-2.5,3.9-2.5,7
		C435.5,265.5,436.3,267.7,437.9,269.4z M433.1,251.5c3-2.9,6.7-4.3,11.1-4.3s8.1,1.4,11.1,4.3c3,2.9,4.4,6.6,4.4,11.1
		c0,4.4-1.5,8.1-4.4,11.1c-3,2.9-6.7,4.4-11.1,4.4s-8.1-1.5-11.1-4.4s-4.5-6.6-4.5-11.1S430.1,254.4,433.1,251.5z M401.6,237.4v14.7
		h2.2c0.6,0,1.2,0,1.8-0.1c0.6,0,1.4-0.2,2.5-0.5c1-0.3,1.9-0.7,2.7-1.2c0.8-0.5,1.4-1.2,2-2.3c0.6-1,0.9-2.2,0.9-3.6
		c0-4.8-3.2-7.1-9.6-7.1h-2.5V237.4z M394.5,230.9h8.2c5.4,0,9.5,0.9,12.1,2.7c3.6,2.5,5.4,6.1,5.4,10.9c0,3.3-0.9,6.1-2.8,8.4
		c-1.9,2.3-4.3,3.8-7.4,4.5l14.4,19.8H416l-13.2-18.9h-1.2v18.9h-7L394.5,230.9L394.5,230.9z"/>
</g>
<path class="st0" d="M171,0c94.4,0,171,76.5,171,171s-76.5,171-171,171C76.6,342,0,265.5,0,171S76.5,0,171,0"/>
<g>
	<path class="st2" d="M52.2,190.5h22.4c0.2,3.6,1.3,6.4,3.4,8.5c2,2.2,4.9,3.3,8.6,3.3c3.5,0,6.3-1.2,8.6-3.6
		c1.7-1.9,2.5-4.3,2.5-6.9c0-3.1-1.1-5.7-3.3-7.5c-1.9-1.6-4.6-2.4-8.1-2.4c-1.5,0-2.7,0.2-3.6,0.5v-14.8c3.7,0.5,6.7-0.2,9-2.2
		c1.9-1.6,2.7-3.6,2.7-6c0-2.5-0.7-4.5-2.3-6.1c-1.5-1.5-3.6-2.3-6.2-2.3c-2.6,0-4.6,0.7-6.1,2.2c-1.9,1.8-2.9,4.3-2.9,7.5H56.7
		c0.4-7.8,3.1-14.3,8.2-19.4c5.2-5.5,12.7-8.2,22.3-8.2c9,0,16,2.5,21,7.4c4.5,4.5,6.9,10,6.9,16.3c0,3.9-0.8,7.3-2.5,10.4
		c-1.6,3-3.8,5.1-6.5,6.5c4.1,1.5,7.4,4.1,10,7.8c2.3,3.5,3.6,7.6,3.6,12.4c0,7.3-2.5,13.5-7.4,18.5c-6,6-14.4,9-25.2,9
		c-9.9,0-17.9-2.9-24.1-8.7C56.6,206.9,53,199.6,52.2,190.5"/>
	<path class="st3" d="M160.3,171.4c8.4,0,15.3,6.9,15.3,15.3c0,8.4-6.8,15.3-15.3,15.3c-8.4,0-15.3-6.8-15.3-15.3
		C145,178.3,151.9,171.4,160.3,171.4 M164,152.3c17.4,1.9,30.8,16.6,30.8,34.4c0,19.1-15.5,34.6-34.6,34.6
		c-19.1,0-34.6-15.5-34.6-34.6c0-1,0.1-2.1,0.2-3.1c0.7-8.3,3.2-13.4,7-18.7c7.7-10.7,25.8-33.8,33.9-44.3l11.2,14.9L164,152.3z"/>
	<path class="st3" d="M244.3,151.4c14.2,0,25.8,11.5,25.8,25.8c0,14.2-11.5,25.8-25.8,25.8c-14.2,0-25.8-11.5-25.8-25.8
		S230.1,151.4,244.3,151.4z M244.3,133.3c12.9,0,24.5,5.6,32.6,14.5c1-0.6,2.1-0.9,3.3-0.9c3.6,0,6.5,2.9,6.5,6.5c0,2.1-1,4-2.6,5.2
		c2.7,5.7,4.2,12,4.2,18.7c0,24.3-19.7,43.9-43.9,43.9c-24.3,0-43.9-19.7-43.9-43.9C200.4,152.9,220.1,133.3,244.3,133.3z"/>
	<path class="st4" d="M244.3,151.4c14.2,0,25.8,11.5,25.8,25.8c0,14.2-11.5,25.8-25.8,25.8c-14.2,0-25.8-11.5-25.8-25.8
		S230.1,151.4,244.3,151.4z M244.3,133.3c12.9,0,24.5,5.6,32.6,14.5c1-0.6,2.1-0.9,3.3-0.9c3.6,0,6.5,2.9,6.5,6.5c0,2.1-1,4-2.6,5.2
		c2.7,5.7,4.2,12,4.2,18.7c0,24.3-19.7,43.9-43.9,43.9c-24.3,0-43.9-19.7-43.9-43.9C200.4,152.9,220.1,133.3,244.3,133.3z"/>
	<path class="st0" d="M280.2,147c3.5,0,6.3,2.8,6.3,6.3s-2.8,6.3-6.3,6.3s-6.3-2.8-6.3-6.3C273.9,149.8,276.7,147,280.2,147
		 M280.2,143.8c5.2,0,9.5,4.3,9.5,9.5s-4.3,9.5-9.5,9.5c-5.2,0-9.5-4.3-9.5-9.5C270.7,148.1,274.9,143.8,280.2,143.8z"/>
</g>
</svg>
